<svg width="64" height="64" viewBox="0 0 64 64" fill="none" xmlns="http://www.w3.org/2000/svg">
<path d="M0 32C0 14.3269 14.3269 0 32 0C49.6731 0 64 14.3269 64 32C64 49.6731 49.6731 64 32 64C14.3269 64 0 49.6731 0 32Z" fill="#030214"/>
<path d="M23.8351 52C20.7787 52 18.1459 51.2218 15.9367 49.6653C14.8736 48.9029 14.0182 47.9182 13.3704 46.7111C12.7392 45.4882 12.4236 44.3288 12.4236 43.2329C12.4236 42.3276 12.5315 41.5335 12.7475 40.8505C12.98 40.1517 13.2043 39.5005 13.4202 38.897C13.6361 38.2775 13.7441 37.6422 13.7441 36.9911C13.7441 36.3399 13.4617 35.649 12.897 34.9184C13.1129 34.7596 13.4202 34.6802 13.8189 34.6802C14.5165 34.6802 15.156 34.9105 15.7374 35.3711C16.3354 35.8316 16.8171 36.4034 17.1825 37.0864C17.5646 37.7693 17.7556 38.4523 17.7556 39.1352C19.0844 38.4523 20.2638 38.1743 21.2936 38.3014C22.3401 38.4284 23.0045 38.6984 23.2869 39.1114C23.5693 39.5084 23.7105 39.8579 23.7105 40.1596V40.3502C22.7471 40.4614 21.8999 40.8505 21.1691 41.5176C20.4548 42.1688 20.0977 43.0026 20.0977 44.0191C20.0977 45.0355 20.4382 45.79 21.1192 46.2823C21.8003 46.7747 22.664 47.0208 23.7105 47.0208C24.7403 47.0208 25.7204 46.6317 26.6506 45.8535C27.5807 45.0594 28.0458 43.9476 28.0458 42.5182C28.0458 40.4376 27.506 38.7302 26.4263 37.3961C25.3466 36.0461 23.9098 35.3711 22.1159 35.3711C21.6342 35.3711 21.0943 35.4425 20.4963 35.5855C19.8983 35.7284 19.5578 35.7999 19.4748 35.7999L19.2754 35.7522C19.1093 35.6887 18.9598 35.4584 18.827 35.0613C18.4615 33.8225 17.7805 32.8299 16.7839 32.0834C13.5946 29.6216 12 26.3498 12 22.268C12 18.9803 13.1212 16.4471 15.3636 14.6683C17.6227 12.8894 20.7455 12 24.732 12C26.4761 12 28.0043 12.3176 29.3166 12.9529C30.6454 13.5882 31.667 14.2077 32.3812 14.8112C33.9924 16.193 34.7981 17.9877 34.7981 20.1954C34.7981 20.9259 34.5987 21.9027 34.2001 23.1257C33.8014 24.3327 33.6021 25.0713 33.6021 25.3413C33.6021 26.2783 34.0174 27.1916 34.8479 28.081C34.5489 27.9857 34.1253 27.9381 33.5772 27.9381C33.029 27.9381 32.5058 27.8031 32.0075 27.5331C31.5258 27.2631 31.1437 26.9295 30.8613 26.5325C30.3298 25.8177 29.9228 24.968 29.6405 23.9833C29.5242 24.158 29.1006 24.3407 28.3698 24.5313C27.6389 24.706 27.0243 24.7933 26.526 24.7933C25.0809 24.7933 24.2254 24.3883 23.9596 23.5783C23.8434 23.3401 23.7852 23.1018 23.7852 22.8636C24.8151 22.816 25.7121 22.5618 26.4761 22.1012C27.2568 21.6248 27.6472 20.8783 27.6472 19.8618C27.6472 18.8295 27.3233 18.0353 26.6755 17.4795C26.0443 16.9077 25.33 16.6218 24.5327 16.6218C21.9248 16.6218 20.6209 18.1148 20.6209 21.1007C20.6209 23.626 21.2936 25.508 22.6391 26.7469C23.3035 27.3504 23.9846 27.6681 24.6822 27.6998C25.3965 27.7316 26.1938 27.6284 27.0741 27.3901C27.8382 27.1836 28.3033 27.0804 28.4694 27.0804C28.5857 27.0804 28.7186 27.2869 28.8681 27.6998C29.3996 29.1134 30.0391 30.0663 30.7866 30.5587C32.5972 31.7022 34.034 33.1713 35.097 34.966C36.1601 36.7608 36.6917 38.6746 36.6917 40.7076C36.6917 42.7405 36.3179 44.4638 35.5704 45.8773C34.823 47.2908 33.8346 48.4344 32.6055 49.3079C30.0806 51.1026 27.1572 52 23.8351 52Z" fill="white"/>
<path d="M39.1434 52C36.087 52 33.4543 51.2218 31.245 49.6653C30.182 48.9029 29.3265 47.9182 28.6787 46.7111C28.0475 45.4882 27.7319 44.3288 27.7319 43.2329C27.7319 42.3276 27.8399 41.5335 28.0558 40.8505C28.2884 40.1517 28.5126 39.5005 28.7285 38.897C28.9445 38.2775 29.0524 37.6422 29.0524 36.9911C29.0524 36.3399 28.7701 35.649 28.2053 34.9184C28.4212 34.7596 28.7285 34.6802 29.1272 34.6802C29.8248 34.6802 30.4643 34.9105 31.0457 35.3711C31.6437 35.8316 32.1254 36.4034 32.4908 37.0864C32.8729 37.7693 33.0639 38.4523 33.0639 39.1352C34.3928 38.4523 35.5721 38.1743 36.602 38.3014C37.6484 38.4284 38.3129 38.6984 38.5952 39.1114C38.8776 39.5084 39.0188 39.8579 39.0188 40.1596V40.3502C38.0554 40.4614 37.2083 40.8505 36.4774 41.5176C35.7631 42.1688 35.406 43.0026 35.406 44.0191C35.406 45.0355 35.7465 45.79 36.4276 46.2823C37.1086 46.7747 37.9723 47.0208 39.0188 47.0208C40.0487 47.0208 41.0287 46.6317 41.9589 45.8535C42.8891 45.0594 43.3542 43.9476 43.3542 42.5182C43.3542 40.4376 42.8143 38.7302 41.7346 37.3961C40.655 36.0461 39.2181 35.3711 37.4242 35.3711C36.9425 35.3711 36.4026 35.4425 35.8047 35.5855C35.2067 35.7284 34.8662 35.7999 34.7831 35.7999L34.5838 35.7522C34.4177 35.6887 34.2682 35.4584 34.1353 35.0613C33.7699 33.8225 33.0888 32.8299 32.0922 32.0834C28.9029 29.6216 27.3083 26.3498 27.3083 22.268C27.3083 18.9803 28.4295 16.4471 30.672 14.6683C32.931 12.8894 36.0538 12 40.0404 12C41.7845 12 43.3127 12.3176 44.6249 12.9529C45.9537 13.5882 46.9753 14.2077 47.6895 14.8112C49.3008 16.193 50.1064 17.9877 50.1064 20.1954C50.1064 20.9259 49.9071 21.9027 49.5084 23.1257C49.1098 24.3327 48.9104 25.0713 48.9104 25.3413C48.9104 26.2783 49.3257 27.1916 50.1562 28.081C49.8572 27.9857 49.4337 27.9381 48.8855 27.9381C48.3374 27.9381 47.8141 27.8031 47.3158 27.5331C46.8341 27.2631 46.4521 26.9295 46.1697 26.5325C45.6381 25.8177 45.2312 24.968 44.9488 23.9833C44.8325 24.158 44.409 24.3407 43.6781 24.5313C42.9472 24.706 42.3326 24.7933 41.8343 24.7933C40.3892 24.7933 39.5337 24.3883 39.268 23.5783C39.1517 23.3401 39.0936 23.1018 39.0936 22.8636C40.1234 22.816 41.0204 22.5618 41.7845 22.1012C42.5652 21.6248 42.9555 20.8783 42.9555 19.8618C42.9555 18.8295 42.6316 18.0353 41.9838 17.4795C41.3526 16.9077 40.6383 16.6218 39.841 16.6218C37.2332 16.6218 35.9292 18.1148 35.9292 21.1007C35.9292 23.626 36.602 25.508 37.9474 26.7469C38.6119 27.3504 39.2929 27.6681 39.9905 27.6998C40.7048 27.7316 41.5021 27.6284 42.3825 27.3901C43.1465 27.1836 43.6116 27.0804 43.7777 27.0804C43.894 27.0804 44.0269 27.2869 44.1764 27.6998C44.7079 29.1134 45.3475 30.0663 46.0949 30.5587C47.9055 31.7022 49.3423 33.1713 50.4054 34.966C51.4685 36.7608 52 38.6746 52 40.7076C52 42.7405 51.6263 44.4638 50.8788 45.8773C50.1313 47.2908 49.143 48.4344 47.9138 49.3079C45.389 51.1026 42.4655 52 39.1434 52Z" fill="white"/>
</svg>
